<?xml version="1.0" encoding="UTF-8"?>
<svg width="238px" height="250px" viewBox="0 0 238 250" version="1.1" xmlns="http://www.w3.org/2000/svg" xmlns:xlink="http://www.w3.org/1999/xlink">
    <!-- Generator: Sketch 52.6 (67491) - http://www.bohemiancoding.com/sketch -->
    <title>craft-activitylog-logo</title>
    <desc>Created with Sketch.</desc>
    <g id="Page-1" stroke="none" stroke-width="1" fill="none" fill-rule="evenodd">
        <g id="craft-activitylog-logo">
            <g id="Polygon" fill="#F2DC5D">
                <g id="path-1-link">
                    <polygon id="path-1" points="119 0 192.473157 23.8728757 237.882065 86.3728757 237.882065 163.627124 192.473157 226.127124 119 250 45.5268435 226.127124 0.117935463 163.627124 0.117935463 86.3728757 45.5268435 23.8728757"></polygon>
                </g>
                <g id="path-1-link">
                    <polygon id="path-1" points="119 0 192.473157 23.8728757 237.882065 86.3728757 237.882065 163.627124 192.473157 226.127124 119 250 45.5268435 226.127124 0.117935463 163.627124 0.117935463 86.3728757 45.5268435 23.8728757"></polygon>
                </g>
            </g>
            <path d="M115.1646,43.7849579 C117.282833,38.489375 118.600789,38.7873785 118.108563,44.4479854 L113.018756,102.980761 C112.526429,108.642524 116.533741,111.855283 121.9569,110.160546 L157.279187,99.1223311 C162.707915,97.4258538 165.396551,100.331128 163.273368,105.639088 L122.8354,206.734006 C120.717167,212.029589 119.399211,211.731585 119.891437,206.070978 L124.981244,147.538202 C125.473571,141.87644 121.466259,138.663681 116.0431,140.358418 L80.7208134,151.396633 C75.2920853,153.09311 72.6034485,150.187835 74.7266324,144.879876 L115.1646,43.7849579 Z" id="Path" fill="#000000"></path>
        </g>
    </g>
</svg>